<svg aria-hidden="true" style="position: absolute; width: 0; height: 0; overflow: hidden;" version="1.1" xmlns="http://www.w3.org/2000/svg" xmlns:xlink="http://www.w3.org/1999/xlink">
<defs>
<symbol id="icon-chat_dots" viewBox="0 0 32 32">
<path fill="#fff" style="fill: var(--color1, #fff)" d="M18.309 29.029l0.726-1.223-1.726-1.017-0.72 1.211 1.72 1.023zM12.966 27.806l0.726 1.223 1.72-1.029-0.72-1.217-1.726 1.017zM16.589 28.006c-0.257 0.434-0.92 0.434-1.177 0l-1.72 1.023c0.479 0.789 1.333 1.308 2.309 1.308s1.83-0.519 2.302-1.296l0.007-0.012-1.72-1.029zM14 3.663h4v-2h-4v2zM28.331 14v1.331h2v-1.331h-2zM3.669 15.331v-1.331h-2v1.331h2zM1.669 15.331c0 1.543 0 2.743 0.063 3.714 0.069 0.983 0.206 1.8 0.514 2.554l1.851-0.766c-0.194-0.469-0.309-1.040-0.371-1.92-0.057-0.891-0.057-2.011-0.057-3.583h-2zM10.4 24.32c-1.674-0.029-2.554-0.131-3.24-0.417l-0.766 1.846c1.074 0.446 2.297 0.543 3.971 0.571l0.034-2zM2.251 21.6c0.795 1.884 2.264 3.354 4.098 4.13l0.050 0.019 0.766-1.846c-1.394-0.588-2.481-1.675-3.055-3.031l-0.014-0.037-1.846 0.766zM28.331 15.331c0 1.571 0 2.691-0.057 3.583-0.057 0.88-0.177 1.451-0.371 1.92l1.846 0.766c0.314-0.754 0.457-1.571 0.514-2.549 0.069-0.971 0.069-2.177 0.069-3.714h-2zM21.629 26.32c1.674-0.029 2.897-0.126 3.971-0.571l-0.766-1.846c-0.686 0.286-1.566 0.389-3.24 0.417l0.034 2zM27.903 20.834c-0.588 1.394-1.675 2.481-3.031 3.055l-0.037 0.014 0.766 1.846c1.884-0.795 3.354-2.264 4.13-4.098l0.019-0.050-1.846-0.766zM18 3.669c2.2 0 3.783 0 5.017 0.114 1.217 0.114 1.994 0.343 2.611 0.72l1.046-1.709c-0.989-0.6-2.103-0.869-3.474-1-1.349-0.131-3.040-0.126-5.206-0.126v2zM30.331 14c0-2.166 0-3.857-0.126-5.2-0.131-1.371-0.4-2.486-1-3.474l-1.709 1.046c0.377 0.617 0.6 1.394 0.72 2.611 0.114 1.234 0.114 2.817 0.114 5.017h2zM25.629 4.503c0.766 0.475 1.394 1.103 1.855 1.844l0.014 0.024 1.709-1.046c-0.643-1.038-1.493-1.888-2.499-2.513l-0.033-0.019-1.046 1.709zM14 1.669c-2.166 0-3.857 0-5.2 0.126-1.371 0.131-2.486 0.4-3.474 1l1.046 1.709c0.617-0.377 1.394-0.6 2.611-0.72 1.234-0.114 2.817-0.114 5.017-0.114v-2zM3.669 14c0-2.2 0-3.783 0.114-5.017 0.114-1.217 0.343-1.994 0.72-2.611l-1.709-1.046c-0.6 0.989-0.869 2.103-1 3.474-0.131 1.349-0.126 3.040-0.126 5.206h2zM5.326 2.8c-1.035 0.641-1.883 1.487-2.507 2.488l-0.019 0.032 1.709 1.046c0.475-0.766 1.103-1.394 1.844-1.855l0.024-0.014-1.051-1.703zM14.691 26.789c-0.274-0.457-0.514-0.863-0.743-1.183-0.241-0.347-0.544-0.634-0.896-0.85l-0.013-0.007-1.006 1.731c0.063 0.034 0.149 0.103 0.297 0.309 0.166 0.217 0.343 0.526 0.634 1.017l1.726-1.017zM10.371 26.32c0.583 0.011 0.954 0.017 1.234 0.051 0.269 0.029 0.371 0.069 0.429 0.109l1.006-1.731c-0.389-0.229-0.8-0.32-1.211-0.366-0.4-0.046-0.874-0.051-1.429-0.057l-0.029 2zM19.034 27.806c0.286-0.491 0.469-0.8 0.629-1.017 0.154-0.206 0.24-0.274 0.303-0.309l-1.006-1.731c-0.367 0.223-0.672 0.509-0.908 0.848l-0.006 0.010c-0.229 0.32-0.463 0.726-0.737 1.183l1.726 1.017zM21.594 24.32c-0.549 0.011-1.029 0.017-1.423 0.063-0.417 0.046-0.823 0.137-1.211 0.366l1.006 1.731c0.057-0.040 0.16-0.080 0.429-0.114 0.286-0.029 0.651-0.034 1.234-0.046l-0.034-2z"></path>
<path fill="none" stroke="#fff" style="stroke: var(--color1, #fff)" stroke-linejoin="round" stroke-linecap="round" stroke-miterlimit="4" stroke-width="2.6686" d="M10.669 14.669h0.011M15.989 14.669h0.011M21.32 14.669h0.011"></path>
</symbol>
<symbol id="icon-arrow_right" viewBox="0 0 32 32">
<path fill="none" stroke="#fff" style="stroke: var(--color1, #fff)" stroke-linejoin="round" stroke-linecap="round" stroke-miterlimit="4" stroke-width="3" d="M16.58 3.3l12.68 12.7-12.68 12.7M29.26 16h-27"></path>
</symbol>
<symbol id="icon-arrow_right1" viewBox="0 0 32 32">
<path fill="none" stroke="#8d8ba7" style="stroke: var(--color2, #8d8ba7)" stroke-linejoin="round" stroke-linecap="round" stroke-miterlimit="4" stroke-width="2.1333" d="M17.265 5.211l10.743 10.743-10.743 10.743M28.008 15.954h-22.857"></path>
</symbol>
<symbol id="icon-phone" viewBox="0 0 32 32">
<path d="M30.844 22.933l-3.413-3.378c-0.708-0.707-1.685-1.144-2.764-1.144s-2.057 0.437-2.764 1.144l0-0-0.711 0.693c-3.456-2.915-6.552-6.021-9.362-9.375l-0.096-0.118 0.711-0.711c0.702-0.707 1.136-1.681 1.136-2.756s-0.434-2.049-1.136-2.756l-3.449-3.449c-0.72-0.688-1.697-1.111-2.773-1.111s-2.054 0.423-2.775 1.112l0.002-0.001-1.849 1.902c-0.988 1.001-1.599 2.377-1.599 3.896 0 1.13 0.338 2.181 0.918 3.058l-0.013-0.021c5.654 8.443 12.694 15.483 20.866 20.966l0.271 0.171c0.859 0.566 1.912 0.903 3.043 0.903 1.522 0 2.902-0.609 3.909-1.597l1.866-1.866c0.707-0.708 1.144-1.685 1.144-2.764s-0.437-2.057-1.144-2.764l0 0z"></path>
</symbol>
<symbol id="icon-email" viewBox="0 0 32 32">
<path d="M31.644 13.138c-0.091-0.050-0.199-0.079-0.314-0.079-0.127 0-0.246 0.036-0.347 0.099l0.003-0.002-11.804 8.213c-0.904 0.57-2.003 0.909-3.182 0.909s-2.278-0.338-3.207-0.923l0.025 0.015-11.804-8.213c-0.101-0.066-0.224-0.104-0.356-0.104-0.363 0-0.658 0.294-0.658 0.658 0 0.005 0 0.011 0 0.016l-0-0.001v11.307c0 2.209 1.791 4 4 4v0h24c2.209 0 4-1.791 4-4v-11.307c0-0.001 0-0.002 0-0.002 0-0.253-0.143-0.472-0.352-0.582l-0.004-0.002z"></path>
<path d="M32 7.698c0-2.209-1.791-4-4-4v0h-24c-2.209 0-4 1.791-4 4v0c-0 0.004-0 0.009-0 0.014 0 0.069 0.035 0.129 0.089 0.164l0.001 0 14.844 10.080c0.303 0.192 0.671 0.307 1.067 0.307s0.764-0.114 1.075-0.311l-0.008 0.005 14.827-10.116c0.064-0.033 0.107-0.099 0.107-0.174 0-0.001 0-0.003-0-0.004v0z"></path>
</symbol>
<symbol id="icon-earth" viewBox="0 0 32 32">
<path d="M32 16c0-8.837-7.163-16-16-16s-16 7.163-16 16c0 8.837 7.163 16 16 16v0h0.178c8.73-0.020 15.802-7.092 15.822-15.82v-0.18zM29.333 16c0 1.191-0.178 2.364-0.48 3.502-0.082 0.288-0.342 0.495-0.651 0.495-0.092 0-0.18-0.018-0.26-0.052l0.004 0.002c-0.818-0.356-1.529-0.942-2.027-1.689l-2.951-4.444c-0.609-0.895-1.623-1.476-2.772-1.476-0 0-0.001 0-0.001 0h-0.587c-2.027 0-3.671-1.644-3.671-3.671s1.644-3.671 3.671-3.671v0h3.698c0.142 0 0.284 0.053 0.391 0.124 3.426 2.444 5.633 6.404 5.636 10.88v0zM2.898 13.547c0.060-0.306 0.327-0.533 0.646-0.533 0.004 0 0.008 0 0.012 0h5.795c0.002 0 0.004 0 0.005 0 1.284 0 2.446 0.523 3.283 1.369l1.494 1.494c0.839 0.845 1.358 2.009 1.358 3.295 0 1.194-0.448 2.284-1.184 3.11l0.004-0.005-1.796 2.027c-0.533 0.622-0.853 1.404-0.853 2.222v1.102c-0.013 0.363-0.31 0.652-0.675 0.652-0.090 0-0.175-0.017-0.254-0.049l0.005 0.002c-4.774-2.1-8.048-6.788-8.048-12.241 0-0.864 0.082-1.709 0.239-2.527l-0.013 0.084z"></path>
</symbol>
</defs>
</svg>
