<svg width="598" height="608" viewBox="0 0 598 608" fill="none" xmlns="http://www.w3.org/2000/svg">
<rect x="0.695068" width="597.305" height="608" fill="#5D5A88"/>
<path d="M299.662 357.99C284.425 357.99 269.187 357.99 253.95 357.99C253.205 357.99 252.451 357.99 251.704 357.9C247.889 357.48 246.356 354.452 247.982 350.357C249.394 346.823 250.934 343.379 252.429 339.882C259.487 323.416 266.546 306.954 273.604 290.493C273.822 289.991 274.05 289.488 274.303 289.008C276.081 285.651 278.968 285.178 281.243 288.074C282.847 290.1 284.204 292.376 285.635 294.572C292.908 305.77 300.18 316.973 307.452 328.181C310.628 333.058 314.629 333.323 318.36 328.937C320.212 326.76 322.021 324.525 323.895 322.367C327.273 318.473 331.107 318.707 333.866 323.248C339.404 332.358 344.804 341.59 350.229 350.792C350.653 351.514 350.978 352.31 351.191 353.151C351.718 355.265 350.973 356.966 349.154 357.529C348.013 357.851 346.842 357.999 345.67 357.971C330.342 358.002 315.007 358.008 299.662 357.99Z" fill="#D4D2E3"/>
<path d="M333.834 267.769C333.83 271.283 332.941 274.717 331.279 277.635C329.617 280.553 327.257 282.824 324.498 284.16C321.739 285.495 318.706 285.836 315.783 285.138C312.86 284.44 310.178 282.735 308.079 280.239C305.979 277.743 304.556 274.568 303.989 271.118C303.422 267.668 303.737 264.097 304.895 260.858C306.053 257.619 308 254.858 310.491 252.925C312.982 250.992 315.904 249.974 318.887 250C322.858 250.06 326.651 251.956 329.447 255.28C332.243 258.603 333.819 263.089 333.834 267.769Z" fill="#D4D2E3"/>
</svg>
